<mxfile host="app.diagrams.net" agent="Mozilla/5.0 (Windows NT 10.0; Win64; x64) AppleWebKit/537.36 (KHTML, like Gecko) Chrome/129.0.0.0 Safari/537.36" version="24.7.17">
  <diagram name="P치gina-1" id="TKXsxlufz-NA7zrq-u9S">
    <mxGraphModel dx="628" dy="779" grid="1" gridSize="10" guides="1" tooltips="1" connect="1" arrows="1" fold="1" page="1" pageScale="1" pageWidth="827" pageHeight="1169" math="0" shadow="0">
      <root>
        <mxCell id="0" />
        <mxCell id="1" parent="0" />
        <mxCell id="duGPdIxFxINyKWIOOaCD-2" value="OPP&lt;div&gt;&lt;br&gt;&lt;/div&gt;" style="shape=umlActor;verticalLabelPosition=bottom;verticalAlign=top;html=1;" vertex="1" parent="1">
          <mxGeometry x="160" y="65" width="50" height="100" as="geometry" />
        </mxCell>
        <mxCell id="duGPdIxFxINyKWIOOaCD-13" style="edgeStyle=orthogonalEdgeStyle;rounded=0;orthogonalLoop=1;jettySize=auto;html=1;entryX=0;entryY=0.5;entryDx=0;entryDy=0;" edge="1" parent="1" source="duGPdIxFxINyKWIOOaCD-3" target="duGPdIxFxINyKWIOOaCD-12">
          <mxGeometry relative="1" as="geometry" />
        </mxCell>
        <mxCell id="duGPdIxFxINyKWIOOaCD-3" value="Professor" style="shape=umlActor;verticalLabelPosition=bottom;verticalAlign=top;html=1;" vertex="1" parent="1">
          <mxGeometry x="160" y="240" width="50" height="100" as="geometry" />
        </mxCell>
        <mxCell id="duGPdIxFxINyKWIOOaCD-12" value="Acessar sistema" style="ellipse;whiteSpace=wrap;html=1;" vertex="1" parent="1">
          <mxGeometry x="414" y="255" width="140" height="70" as="geometry" />
        </mxCell>
        <mxCell id="duGPdIxFxINyKWIOOaCD-15" value="" style="html=1;verticalAlign=bottom;endArrow=block;curved=0;rounded=0;exitX=0.5;exitY=0.5;exitDx=0;exitDy=0;exitPerimeter=0;entryX=0;entryY=0;entryDx=0;entryDy=0;" edge="1" parent="1" source="duGPdIxFxINyKWIOOaCD-2" target="duGPdIxFxINyKWIOOaCD-12">
          <mxGeometry width="80" relative="1" as="geometry">
            <mxPoint x="340" y="230" as="sourcePoint" />
            <mxPoint x="420" y="230" as="targetPoint" />
          </mxGeometry>
        </mxCell>
        <mxCell id="duGPdIxFxINyKWIOOaCD-16" value="Administrador" style="shape=umlActor;verticalLabelPosition=bottom;verticalAlign=top;html=1;" vertex="1" parent="1">
          <mxGeometry x="160" y="420" width="50" height="100" as="geometry" />
        </mxCell>
        <mxCell id="duGPdIxFxINyKWIOOaCD-17" value="" style="html=1;verticalAlign=bottom;endArrow=block;curved=0;rounded=0;exitX=0.5;exitY=0.5;exitDx=0;exitDy=0;exitPerimeter=0;entryX=0;entryY=1;entryDx=0;entryDy=0;" edge="1" parent="1" source="duGPdIxFxINyKWIOOaCD-16" target="duGPdIxFxINyKWIOOaCD-12">
          <mxGeometry width="80" relative="1" as="geometry">
            <mxPoint x="195" y="125" as="sourcePoint" />
            <mxPoint x="445" y="275" as="targetPoint" />
          </mxGeometry>
        </mxCell>
        <mxCell id="duGPdIxFxINyKWIOOaCD-18" value="Cadastrar OPP" style="ellipse;whiteSpace=wrap;html=1;" vertex="1" parent="1">
          <mxGeometry x="414" y="435" width="140" height="70" as="geometry" />
        </mxCell>
        <mxCell id="duGPdIxFxINyKWIOOaCD-19" value="" style="html=1;verticalAlign=bottom;endArrow=block;curved=0;rounded=0;entryX=0;entryY=0.5;entryDx=0;entryDy=0;exitX=0.5;exitY=0.5;exitDx=0;exitDy=0;exitPerimeter=0;" edge="1" parent="1" source="duGPdIxFxINyKWIOOaCD-16" target="duGPdIxFxINyKWIOOaCD-18">
          <mxGeometry width="80" relative="1" as="geometry">
            <mxPoint x="190" y="470" as="sourcePoint" />
            <mxPoint x="445" y="325" as="targetPoint" />
          </mxGeometry>
        </mxCell>
        <mxCell id="duGPdIxFxINyKWIOOaCD-20" value="Cadastrar Professor" style="ellipse;whiteSpace=wrap;html=1;" vertex="1" parent="1">
          <mxGeometry x="414" y="80" width="140" height="70" as="geometry" />
        </mxCell>
        <mxCell id="duGPdIxFxINyKWIOOaCD-21" value="" style="html=1;verticalAlign=bottom;endArrow=block;curved=0;rounded=0;exitX=0.5;exitY=0.5;exitDx=0;exitDy=0;exitPerimeter=0;entryX=0;entryY=0.5;entryDx=0;entryDy=0;" edge="1" parent="1" source="duGPdIxFxINyKWIOOaCD-2" target="duGPdIxFxINyKWIOOaCD-20">
          <mxGeometry width="80" relative="1" as="geometry">
            <mxPoint x="195" y="125" as="sourcePoint" />
            <mxPoint x="445" y="275" as="targetPoint" />
          </mxGeometry>
        </mxCell>
        <mxCell id="duGPdIxFxINyKWIOOaCD-22" value="Anexar Fotos e 치udio" style="ellipse;whiteSpace=wrap;html=1;" vertex="1" parent="1">
          <mxGeometry x="687" y="255" width="140" height="70" as="geometry" />
        </mxCell>
        <mxCell id="duGPdIxFxINyKWIOOaCD-23" value="&amp;lt;&amp;lt;include&amp;gt;&amp;gt;" style="html=1;verticalAlign=bottom;labelBackgroundColor=none;endArrow=open;endFill=0;dashed=1;rounded=0;exitX=0;exitY=0.5;exitDx=0;exitDy=0;entryX=1;entryY=0.5;entryDx=0;entryDy=0;" edge="1" parent="1" source="duGPdIxFxINyKWIOOaCD-22" target="duGPdIxFxINyKWIOOaCD-12">
          <mxGeometry width="160" relative="1" as="geometry">
            <mxPoint x="620" y="450" as="sourcePoint" />
            <mxPoint x="780" y="450" as="targetPoint" />
          </mxGeometry>
        </mxCell>
        <mxCell id="duGPdIxFxINyKWIOOaCD-24" value="Exibir hist칩rico&amp;nbsp;" style="ellipse;whiteSpace=wrap;html=1;" vertex="1" parent="1">
          <mxGeometry x="687" y="150" width="140" height="70" as="geometry" />
        </mxCell>
        <mxCell id="duGPdIxFxINyKWIOOaCD-25" value="&amp;lt;&amp;lt;include&amp;gt;&amp;gt;" style="html=1;verticalAlign=bottom;labelBackgroundColor=none;endArrow=open;endFill=0;dashed=1;rounded=0;exitX=0;exitY=0.5;exitDx=0;exitDy=0;entryX=1;entryY=0;entryDx=0;entryDy=0;" edge="1" parent="1" source="duGPdIxFxINyKWIOOaCD-24" target="duGPdIxFxINyKWIOOaCD-12">
          <mxGeometry width="160" relative="1" as="geometry">
            <mxPoint x="697" y="300" as="sourcePoint" />
            <mxPoint x="564" y="300" as="targetPoint" />
          </mxGeometry>
        </mxCell>
        <mxCell id="duGPdIxFxINyKWIOOaCD-26" value="&amp;lt;&amp;lt;include&amp;gt;&amp;gt;" style="html=1;verticalAlign=bottom;labelBackgroundColor=none;endArrow=open;endFill=0;dashed=1;rounded=0;entryX=1;entryY=1;entryDx=0;entryDy=0;exitX=0;exitY=0.5;exitDx=0;exitDy=0;" edge="1" parent="1" source="duGPdIxFxINyKWIOOaCD-27" target="duGPdIxFxINyKWIOOaCD-12">
          <mxGeometry width="160" relative="1" as="geometry">
            <mxPoint x="660" y="360" as="sourcePoint" />
            <mxPoint x="574" y="310" as="targetPoint" />
          </mxGeometry>
        </mxCell>
        <mxCell id="duGPdIxFxINyKWIOOaCD-27" value="Anexar Fotos e 치udio" style="ellipse;whiteSpace=wrap;html=1;" vertex="1" parent="1">
          <mxGeometry x="687" y="370" width="140" height="70" as="geometry" />
        </mxCell>
      </root>
    </mxGraphModel>
  </diagram>
</mxfile>
